<svg width="35" height="35" viewBox="0 0 35 35" fill="none" xmlns="http://www.w3.org/2000/svg">
<path fill-rule="evenodd" clip-rule="evenodd" d="M30.626 9.73263C30.626 12.691 28.2268 15.0903 25.2684 15.0903C22.31 15.0903 19.9121 12.691 19.9121 9.73263C19.9121 6.77425 22.31 4.375 25.2684 4.375C28.2268 4.375 30.626 6.77425 30.626 9.73263Z" stroke="#9DB2CE" stroke-width="2" stroke-linecap="round" stroke-linejoin="round"/>
<path fill-rule="evenodd" clip-rule="evenodd" d="M15.0889 9.73263C15.0889 12.691 12.691 15.0903 9.73131 15.0903C6.77425 15.0903 4.375 12.691 4.375 9.73263C4.375 6.77425 6.77425 4.375 9.73131 4.375C12.691 4.375 15.0889 6.77425 15.0889 9.73263Z" stroke="#9DB2CE" stroke-width="2" stroke-linecap="round" stroke-linejoin="round"/>
<path fill-rule="evenodd" clip-rule="evenodd" d="M30.626 25.1736C30.626 28.132 28.2268 30.5299 25.2684 30.5299C22.31 30.5299 19.9121 28.132 19.9121 25.1736C19.9121 22.2152 22.31 19.816 25.2684 19.816C28.2268 19.816 30.626 22.2152 30.626 25.1736Z" stroke="#9DB2CE" stroke-width="2" stroke-linecap="round" stroke-linejoin="round"/>
<path fill-rule="evenodd" clip-rule="evenodd" d="M15.0889 25.1736C15.0889 28.132 12.691 30.5299 9.73131 30.5299C6.77425 30.5299 4.375 28.132 4.375 25.1736C4.375 22.2152 6.77425 19.816 9.73131 19.816C12.691 19.816 15.0889 22.2152 15.0889 25.1736Z" stroke="#9DB2CE" stroke-width="2" stroke-linecap="round" stroke-linejoin="round"/>
</svg>
